<?xml version="1.0" encoding="UTF-8"?><!DOCTYPE svg PUBLIC "-//W3C//DTD SVG 1.1//EN" "http://www.w3.org/Graphics/SVG/1.1/DTD/svg11.dtd"><svg xmlns="http://www.w3.org/2000/svg" xmlns:xlink="http://www.w3.org/1999/xlink"><symbol id="account" viewBox="0 0 22 22"><path d="M22 11c0-6.1-4.9-11-11-11-2.9 0-5.6 1.1-7.6 3.1-.3.2-.3.6 0 .9.2.2.6.3.9 0C6.1 2.3 8.5 1.3 11 1.3c5.3 0 9.7 4.3 9.7 9.7 0 2.4-.9 4.8-2.5 6.5-1.8 2-4.4 3.1-7.1 3.1-2.6 0-5.1-1.1-6.9-2.9v-.1-.1-.2-.1c0-.1 0-.1.1-.2v-.1c.1-.2.1-.3.2-.5v-.1c0-.1.1-.1.1-.2V16l.1-.1s0-.1.1-.1l.1-.1s0-.1.1-.1l.1-.1s0-.1.1-.1l.1-.1s0-.1.1-.1l.1-.1.1-.1.1-.1.1-.1.1-.1.1-.1.1-.1.1-.1.1-.1.1-.1.1-.1s.1 0 .1-.1l.1-.1s.1 0 .1-.1l.1-.1s.1 0 .1-.1c0 0 .1 0 .1-.1 0 0 .1 0 .1-.1 0 0 .1 0 .1-.1 0 0 .1 0 .1-.1 0 0 .1 0 .1-.1 0 0 .1 0 .1-.1 0 0 .1 0 .1-.1h.1s.1 0 .1-.1h3.7c1.9 0 3.7.8 4.9 2.3.2.3.6.3.9.1.3-.2.3-.6.1-.9-1-1.2-2.4-2.1-3.9-2.5.9-.8 1.4-1.9 1.4-3.1 0-2.3-1.9-4.2-4.2-4.2-2.3 0-4.2 1.9-4.2 4.2 0 1.2.5 2.4 1.4 3.1h-.1c.2.1.1.2 0 .2s-.2.1-.3.1h-.1c-.1 0-.1.1-.2.1h-.1c-.1 0-.1.1-.2.1 0 0-.1 0-.1.1-.1 0-.1.1-.2.1 0 0-.1 0-.1.1-.1 0-.1.1-.2.1 0 0-.1 0-.1.1-.1 0-.1.1-.2.1 0 0-.1 0-.1.1 0-.1 0-.1-.1 0s-.2.1-.2.2l-.1.1c-.1 0-.1.1-.2.1l-.1.1-.1.1-.1.1-.1.1-.1.1-.1.1-.1.1-.1.1s0 .1-.1.1c-.1.1-.1.1-.1.2v.1c-.1.1-.1.2-.2.2v.1c0 .1-.1.1-.1.2 0 0 0 .1-.1.1 0 .1-.1.1-.1.2 0 0 0 .1-.1.1 0 .1-.1.1-.1.2 0 0 0 .1-.1.1 0 .1-.1.1-.1.2 0 0 0 .1-.1.1 0 .1-.1.1-.1.2v.1c0 .1-.1.1-.1.2v.1C1.9 15 1.3 13 1.3 11c0-.4-.3-.7-.7-.7-.3 0-.6.3-.6.7 0 2.8 1 5.4 2.9 7.4C5 20.7 7.9 22 11 22c3.1 0 6-1.3 8.1-3.6 1.9-2 2.9-4.6 2.9-7.4zM11 5.9c1.6 0 2.9 1.3 2.9 2.9 0 1.6-1.3 2.9-2.9 2.9-1.6 0-2.9-1.3-2.9-2.9 0-1.6 1.3-2.9 2.9-2.9z" fill="#3e81e9"/></symbol><symbol id="arrow" viewBox="0 0 7 5"><path class="st0" d="M1 1l2.5 3L6 1"/></symbol><symbol id="btn-arr" viewBox="0 0 7 8"><path d="M7 3.5L3.5 0 0 3.5l.7.7L3 1.9V8h1V1.9l2.3 2.3.7-.7z" fill="#c5c5c5"/></symbol><symbol id="calendar" viewBox="0 0 16 16"><style>.st0{fill:#fff}</style><path class="st0" d="M12.1 7.2c.3 0 .6-.3.6-.6s-.3-.6-.6-.6-.6.3-.6.6.2.6.6.6z"/><path class="st0" d="M13.5 1.3h-.8V.6c0-.3-.3-.6-.6-.6s-.6.3-.6.6v.6H8.6V.6C8.6.3 8.3 0 8 0s-.7.3-.7.6v.6H4.5V.6c0-.3-.2-.6-.6-.6s-.6.3-.6.6v.6h-.8C1.1 1.3 0 2.4 0 3.8v9.8C0 14.9 1.1 16 2.5 16h4.8c.3 0 .6-.3.6-.6s-.3-.6-.6-.6H2.5c-.7 0-1.3-.6-1.3-1.3V3.8c0-.7.6-1.3 1.3-1.3h.8v.6c0 .3.3.6.6.6s.6-.3.6-.6v-.6h2.8v.6c0 .3.3.6.6.6s.6-.3.6-.6v-.6h2.8v.6c0 .3.3.6.6.6s.6-.3.6-.6v-.6h.8c.7 0 1.3.6 1.3 1.3v3.6c0 .3.3.6.6.6s.8-.3.8-.7V3.8c0-1.4-1.1-2.5-2.5-2.5z"/><path class="st0" d="M12.2 8.4c-2.1 0-3.8 1.7-3.8 3.8 0 2.1 1.7 3.8 3.8 3.8 2.1 0 3.8-1.7 3.8-3.8 0-2.1-1.7-3.8-3.8-3.8zm0 6.4c-1.4 0-2.5-1.1-2.5-2.5s1.1-2.5 2.5-2.5 2.5 1.1 2.5 2.5c.1 1.3-1.1 2.5-2.5 2.5z"/><path class="st0" d="M13.1 11.6h-.3v-.7c0-.3-.3-.6-.6-.6s-.6.3-.6.6v1.3c0 .3.3.6.6.6h.9c.3 0 .6-.3.6-.6.1-.3-.2-.6-.6-.6zM9.3 7.2c.3 0 .6-.3.6-.6s-.2-.7-.6-.7-.6.3-.6.7.3.6.6.6zM6.6 9.9c.3 0 .6-.3.6-.6s-.2-.6-.6-.6-.6.2-.6.6.3.6.6.6zM3.9 7.2c.3 0 .6-.3.6-.6s-.2-.7-.6-.7-.6.3-.6.7.3.6.6.6zM3.9 9.9c.3 0 .6-.3.6-.6s-.2-.6-.6-.6-.6.2-.6.6.3.6.6.6zM3.9 12.6c.3 0 .6-.3.6-.6s-.3-.6-.6-.6-.6.3-.6.6.3.6.6.6zM6.6 12.6c.3 0 .6-.3.6-.6s-.2-.6-.6-.6-.6.3-.6.6.3.6.6.6zM6.6 7.2c.3 0 .6-.3.6-.6s-.2-.7-.6-.7-.6.3-.6.7.3.6.6.6z"/></symbol><symbol id="card-shape" viewBox="0 0 10 9"><path d="M1.8 8C1.4 8 1 7.5 1 6.9V2c0-.6.4-1 .8-1h6.4c.4 0 .8.5.8 1v4.9C9 7.5 8.6 8 8.2 8H1.8z" fill="none" stroke="#fff"/></symbol><symbol id="cart" viewBox="0 0 22 21"><style>.st0{fill:#3e81e9}</style><path class="st0" d="M20.3 6.5h-1.1L13 .3c-.3-.3-.7-.3-1 0-.3.3-.3.7 0 1l5.2 5.2H4.8L10 1.3c.3-.3.3-.7 0-1-.3-.3-.7-.3-1 0L2.8 6.4H1.7C.8 6.5 0 7.2 0 8.1v1c0 .9.7 1.6 1.5 1.7L2.9 19c.2 1 1.1 1.8 2.1 1.8h12.1c1.1 0 2-.8 2.1-1.8l1.2-8.2c.9-.1 1.6-.8 1.6-1.7v-1c0-.9-.8-1.6-1.7-1.6zm.3 2.6c0 .1-.1.2-.2.2h-7.2c-.4 0-.7.3-.7.7 0 .4.3.7.7.7H19l-1.1 8c-.1.4-.4.6-.7.6H5c-.4 0-.6-.3-.7-.6l-1.3-8h5.8c.4 0 .7-.3.7-.7 0-.4-.3-.7-.7-.7H1.6c-.1 0-.2-.1-.2-.2v-1c0-.1.1-.2.2-.2h18.7c.1 0 .2.1.2.2v1z"/><path class="st0" d="M6.7 12.2c-.4 0-.7.3-.7.7v4.3c0 .4.3.7.7.7.4 0 .7-.3.7-.7v-4.3c0-.4-.3-.7-.7-.7zM11 12.2c-.4 0-.7.3-.7.7v4.3c0 .4.3.7.7.7s.7-.3.7-.7v-4.3c0-.4-.3-.7-.7-.7zM15.3 12.2c-.4 0-.7.3-.7.7v4.3c0 .4.3.7.7.7.4 0 .7-.3.7-.7v-4.3c0-.4-.3-.7-.7-.7z"/></symbol><symbol id="delete" viewBox="0 0 10 10"><path d="M1 1l4 4m0 0l4 4M5 5L1 9m4-4l4-4" fill="none" stroke="#c5c5c5" stroke-width="2" stroke-linecap="round" stroke-opacity=".5"/></symbol><symbol id="eye"><path d="M7 0C4.325 0 1.9 1.403.11 3.682a.514.514 0 000 .634C1.9 6.597 4.325 8 7 8s5.1-1.403 6.89-3.682a.514.514 0 000-.634C12.1 1.403 9.675 0 7 0zm.192 6.817c-1.776.107-3.242-1.296-3.13-3 .091-1.407 1.28-2.546 2.746-2.634 1.776-.107 3.242 1.296 3.13 3-.094 1.404-1.283 2.543-2.746 2.634zm-.089-1.302c-.956.058-1.747-.697-1.684-1.614.049-.758.69-1.37 1.48-1.42.957-.057 1.748.698 1.685 1.615-.052.76-.693 1.373-1.48 1.42z" fill="#ADADAD"/></symbol><symbol id="facebook" viewBox="0 0 31 31"><path d="M15.5 31C24.1 31 31 24.1 31 15.5S24.1 0 15.5 0 0 6.9 0 15.5 6.9 31 15.5 31z" fill="#3b5998"/><path d="M19.4 16.1h-2.8v10.1h-4.2V16.1h-2v-3.6h2v-2.3c0-1.6.8-4.2 4.2-4.2h3.1v3.5h-2.3c-.4 0-.9.2-.9 1v2.1h3.1l-.2 3.5z" fill="#fff"/></symbol><symbol id="fire" viewBox="0 0 18 20"><path d="M18 10.5c0-1.1-.2-2.1-.6-3.1-.2 2.9-1.8 4.3-3.4 3.6-1.5-.6-.5-3.1-.4-4.3.1-2 0-4.3-3.7-6.2 1.5 2.9.2 4.7-1.2 4.8-1.5.1-2.9-1.3-2.4-3.7C4.6 2.8 4.5 5 5.1 6.3c.6 1.4 0 2.6-1.4 2.8-1.5.2-2.3-1.6-1.6-4.4C.8 6.3 0 8.3 0 10.5c0 5 4 9 9 9s9-4 9-9z" fill="#f4900c"/><path d="M14.5 13.2c.1 1.6-1.4 2.3-2.1 2-1.1-.4-.8-1.2-1.1-2.8-.3-1.6-1.4-2.7-3-3.2 1.2 3.4-.7 4.6-1.6 4.8-1 .2-2 0-2.1-2.1-1.2 1.2-1.9 2.7-1.9 4.5v.6c1.6 1.6 3.9 2.6 6.3 2.6 2.5 0 4.7-1 6.3-2.6v-.6c.1-1.2-.3-2.3-.8-3.2z" fill="#ffcc4d"/></symbol><symbol id="google" viewBox="0 0 291.32 291.32"><path d="M145.66 0c80.113 0 145.66 65.547 145.66 145.66s-65.547 145.66-145.66 145.66S0 225.772 0 145.66 65.547 0 145.66 0z" fill="#dd4b39"/><g fill="#fff"><path d="M219.4 121.079v16.387h16.386v16.387H219.4v16.387h-16.387v-16.387h-16.387v-16.387h16.387v-16.387zM71.919 186.626c-21.849-21.849-21.849-60.085.91-81.933 16.387-16.387 40.056-20.028 60.995-11.835l8.193 4.552 9.104 6.373-14.566 14.566-5.462-3.641c-12.745-8.193-30.953-6.373-42.787 5.462-13.656 13.656-14.566 38.236 0 52.802 13.656 14.566 38.236 14.566 50.981 0 3.641-3.641 7.283-9.104 8.193-14.566v-1.821h-32.773v-18.207h51.891l.91 4.552v12.745c-.91 11.835-5.462 23.67-13.656 31.863-21.848 20.937-60.084 20.937-81.933-.912z"/></g></symbol><symbol id="heart" viewBox="0 0 22 19"><path class="st0" d="M14.2 3.4c.2.3.1.7-.2.9-.2.1-.3.2-.4.3-.1.1-.3.2-.5.2s-.3-.1-.5-.2c-.3-.2-.3-.7 0-.9.2-.2.4-.4.7-.5.3-.2.7-.1.9.2zm5.9 7.6c-.1.1-6.7 6.5-6.7 6.5-.6.6-1.5 1-2.4 1s-1.8-.3-2.4-1L1.9 11c-2.6-2.5-2.6-6.6 0-9.1C3.2.7 4.8 0 6.6 0 8.2 0 9.8.6 11 1.6 12.2.6 13.8 0 15.4 0c1.8 0 3.4.7 4.7 1.9 2.5 2.5 2.5 6.6 0 9.1zm-1-8.2c-1-1-2.3-1.5-3.7-1.5-1.4 0-2.7.5-3.7 1.5-.1 0-.1.1-.2.2-.3.3-.7.3-1 0l-.2-.2c-1-1-2.3-1.5-3.7-1.5-1.4 0-2.7.5-3.7 1.5-2.1 2-2.1 5.3 0 7.3.1.1 6.7 6.5 6.7 6.5.4.4.9.6 1.4.6s1-.2 1.4-.6l6.7-6.5c2.1-2 2.1-5.3 0-7.3zm-1 .9c-.4-.4-.9-.7-1.4-.9-.3-.1-.7 0-.9.4-.1.3 0 .7.4.8.3.1.7.3.9.6 1 1 1 2.7 0 3.7l-2.4 2.3c-.3.3-.3.7 0 .9.1.1.3.2.5.2s.3-.1.5-.2l2.4-2.3c1.6-1.5 1.6-4 0-5.5z"/></symbol><symbol id="inst" viewBox="0 0 20 20"><path class="st0" d="M13.8 0H6.3C2.8 0 0 2.8 0 6.3v7.5C0 17.2 2.8 20 6.3 20h7.5c3.5 0 6.3-2.8 6.3-6.3V6.3C20 2.8 17.2 0 13.8 0zm4.3 13.8c0 2.4-2 4.4-4.4 4.4H6.3c-2.4 0-4.4-2-4.4-4.4V6.3c0-2.4 2-4.4 4.4-4.4h7.5c2.4 0 4.4 2 4.4 4.4v7.5z"/><path class="st0" d="M10 5c-2.8 0-5 2.2-5 5s2.2 5 5 5 5-2.2 5-5-2.2-5-5-5zm0 8.1c-1.7 0-3.1-1.4-3.1-3.1 0-1.7 1.4-3.1 3.1-3.1s3.1 1.4 3.1 3.1c0 1.7-1.4 3.1-3.1 3.1zM15.4 5.3c.3 0 .6-.3.6-.7s-.3-.6-.6-.6c-.4 0-.7.3-.7.7s.3.6.7.6z"/></symbol><symbol id="link-arrow"><path d="M1 1l3 2.5L1 6" stroke="#FF4D4D" stroke-linecap="round" stroke-linejoin="round"/></symbol><symbol id="place" viewBox="0 0 8 10"><path d="M7.8 2.9c0-.2-.1-.3-.2-.5C6.9.6 5.3 0 3.9 0 2.2 0 .3 1.2 0 3.6v.8c.1 1.2 1.1 2.4 1.7 3.5.3.5.6.9.9 1.4.6 1 2.2 1 2.8 0 .1-.3.3-.5.4-.7.1-.2.2-.3.3-.5.7-1.3 1.9-2.7 1.9-4v-.5c0-.2-.2-.7-.2-.7zM4 5.4c-.5 0-1.1-.3-1.4-1v-.7c0-.9.8-1.3 1.4-1.3.8 0 1.5.7 1.5 1.5S4.8 5.4 4 5.4z" fill="#3e81e9"/></symbol><symbol id="search" viewBox="0 0 14 14"><path d="M13.8 12.8l-3.5-3.5c.9-1 1.4-2.3 1.4-3.6C11.7 2.5 9.1 0 5.9 0S0 2.5 0 5.7c0 3.1 2.6 5.7 5.9 5.7 1.2 0 2.4-.4 3.4-1l3.5 3.5c.1.1.3.2.6.2.2 0 .4-.1.5-.2.2-.4.2-.9-.1-1.1zM5.9 1.5c2.4 0 4.3 1.9 4.3 4.2s-2 4.1-4.3 4.1C3.5 9.8 1.5 8 1.5 5.7s2-4.2 4.4-4.2z" fill="#3e81e9"/></symbol><symbol id="slider-arrow" viewBox="0 0 11 8"><path d="M.6 4.4c-.2-.2-.2-.5 0-.7L3.8.5c.2-.2.5-.2.7 0 .2.2.2.5 0 .7L1.7 4l2.8 2.8c.2.2.2.5 0 .7-.2.2-.5.2-.7 0L.6 4.4zm9.4-.9c.3 0 .5.2.5.5s-.2.5-.5.5v-1zm-9 0h9v1H1v-1z" fill="#2e2e2e"/></symbol><symbol id="star" viewBox="0 0 12 11"><path class="st0" d="M6 0l1.8 3.6 3.9.6-2.8 2.7.7 3.9L6 9l-3.5 1.9.7-3.9L.3 4.1l3.9-.6L6 0z"/></symbol><symbol id="time" viewBox="0 0 16 16"><style>.st0{fill:#fff}</style><path class="st0" d="M14.3 4.2c-.3.2-.5.6-.3.9.4.9.7 1.9.7 2.9A6.7 6.7 0 118 1.3c1.5 0 3 .5 4.1 1.4.3.3.7.3 1 0 .2-.3.2-.7-.1-1C11.6.6 9.8 0 8 0 3.6 0 0 3.6 0 8s3.6 8 8 8 8-3.6 8-8c0-1.2-.3-2.4-.8-3.5-.2-.3-.6-.5-.9-.3z"/><path class="st0" d="M8 2.7c-.4 0-.7.3-.7.6V8c0 .4.3.7.7.7h3.3c.4 0 .7-.3.7-.7s-.3-.7-.7-.7H8.7v-4c0-.3-.3-.6-.7-.6z"/></symbol><symbol id="vector-header" viewBox="0 0 18 12"><path d="M1.3 1h2.5m5.1 0h7.6M7.7 6h8.9M1.3 6h1.3M14 11h2.5M1.3 11h7.6" fill="none" stroke="#fff" stroke-width="2" stroke-linecap="round"/></symbol><symbol id="vk" viewBox="0 0 25 15"><path class="st0" d="M12.2 14.6h1.5s.5-.1.7-.3c.2-.2.2-.7.2-.7s0-2 .9-2.3c.9-.3 2.1 1.9 3.3 2.8.9.6 1.7.5 1.7.5h3.3s1.7-.1.9-1.5c-.1-.1-.5-1-2.5-2.9-2.1-1.9-1.8-1.6.7-5 1.5-2 2.2-3.3 2-3.8-.1-.5-1.3-.4-1.3-.4h-3.8s-.3 0-.5.1-.3.4-.3.4-.6 1.6-1.4 2.9c-1.7 2.8-2.3 3-2.6 2.8-.6-.4-.5-1.7-.5-2.5 0-2.8.4-3.9-.8-4.2-.4-.1-.7-.2-1.8-.2-1.3 0-2.5 0-3.1.3-.3.3-.7.8-.5.8.2 0 .8.2 1.1.6.4.5.4 1.7.4 1.7s.2 3.2-.5 3.6c-.5.3-1.2-.3-2.7-2.9-.7-1.3-1.3-2.7-1.3-2.7s-.1-.3-.3-.5L4.4 1H.8s-.5 0-.7.2c-.2.2 0 .6 0 .6s2.8 6.5 6 9.8c2.8 3.2 6.1 3 6.1 3z"/></symbol><symbol id="vkontacte" viewBox="0 0 32 31"><path d="M16.1 31c8.6 0 15.5-6.9 15.5-15.5S24.7 0 16.1 0 .6 6.9.6 15.5 7.5 31 16.1 31z" fill="#4d76a1"/><path d="M15.5 22.3h1.2s.4 0 .6-.2c.2-.2.2-.5.2-.5s0-1.6.7-1.9c.7-.2 1.7 1.6 2.7 2.3.8.5 1.4.4 1.4.4H25s1.4-.1.7-1.2c-.1-.1-.4-.8-2-2.3-1.7-1.6-1.5-1.3.6-4.1 1.3-1.7 1.8-2.7 1.6-3.1-.1-.4-1.1-.3-1.1-.3h-3.1s-.2 0-.4.1-.3.3-.3.3-.4 1.2-1 2.3c-1.4 2.3-1.9 2.4-2.1 2.3-.5-.3-.4-1.3-.4-2.1 0-2.2.3-3.2-.7-3.4-.3-.1-.6-.1-1.4-.1-1.1 0-2 0-2.5.3-.3.2-.6.6-.5.6.2 0 .7.1.9.5.3.4.3 1.4.3 1.4s.2 2.6-.4 3c-.4.2-1-.2-2.2-2.3-.6-1.1-1.1-2.3-1.1-2.3s-.1-.2-.3-.3c-.2-.1-.5-.2-.5-.2H6.2s-.4 0-.6.2c-.1.2 0 .5 0 .5s2.3 5.3 4.9 8c2.3 2.3 5 2.1 5 2.1z" fill-rule="evenodd" clip-rule="evenodd" fill="#fff"/></symbol><symbol id="wa" viewBox="0 0 20 20"><path class="st0" d="M10 0C4.5 0 0 4.5 0 10c0 1.8.5 3.6 1.4 5.1L0 20l4.9-1.4c1.5.9 3.3 1.4 5.1 1.4 5.5 0 10-4.5 10-10S15.5 0 10 0zm6.3 14.2l-.5.5c-.7.7-2.2.6-3.1.4-3.2-.6-7-4.3-7.7-7.4-.5-1.6-.3-3 .3-3.5l.5-.5c.3-.3.7-.3.9 0l1.9 1.9c.1.1.2.3.2.5s-.2.3-.3.4l-.4.5c-.5.5-.5 1.3 0 1.9l3.1 3c.5.5 1.3.5 1.9 0l.5-.5c.2-.2.7-.2.9 0l1.9 1.9c.1.2.1.7-.1.9z"/></symbol><symbol id="yt" viewBox="0 0 25 19"><path class="st0" d="M23.9 2.6C23.3 1.4 22.5 1.1 21 1 19.5.9 15.7.9 12.5.9 9.2.9 5.5.9 4 1s-2.3.4-2.9 1.6C.4 3.8 0 5.8 0 9.5c0 3.6.4 5.7 1.1 6.9.6 1.2 1.4 1.5 2.9 1.6 1.5.1 5.3.1 8.5.1 3.3 0 7-.1 8.5-.1 1.5-.1 2.2-.3 2.9-1.5.7-1.2 1.1-3.3 1.1-6.9 0-3.8-.4-5.8-1.1-7zM9.4 14.2V4.8l7.8 4.7-7.8 4.7z"/></symbol></svg>