<?xml version="1.0" encoding="utf-8"?>
<!-- Generator: Adobe Illustrator 24.1.2, SVG Export Plug-In . SVG Version: 6.00 Build 0)  -->
<svg version="1.1" id="Слой_1" xmlns="http://www.w3.org/2000/svg" xmlns:xlink="http://www.w3.org/1999/xlink" x="0px" y="0px"
	 viewBox="0 0 22 22" style="enable-background:new 0 0 22 22;" xml:space="preserve">
<style type="text/css">
	.st0{fill:#3E81E9;}
</style>
<path class="st0" d="M22,11c0-6.1-4.9-11-11-11C8.1,0,5.4,1.1,3.4,3.1C3.1,3.3,3.1,3.7,3.4,4C3.6,4.2,4,4.3,4.3,4
	C6.1,2.3,8.5,1.3,11,1.3c5.3,0,9.7,4.3,9.7,9.7c0,2.4-0.9,4.8-2.5,6.5c-1.8,2-4.4,3.1-7.1,3.1c-2.6,0-5.1-1.1-6.9-2.9
	c0,0,0-0.1,0-0.1c0,0,0-0.1,0-0.1c0-0.1,0-0.1,0-0.2c0,0,0-0.1,0-0.1c0-0.1,0-0.1,0.1-0.2c0,0,0,0,0-0.1c0.1-0.2,0.1-0.3,0.2-0.5
	c0,0,0,0,0-0.1c0-0.1,0.1-0.1,0.1-0.2c0,0,0-0.1,0-0.1c0,0,0.1-0.1,0.1-0.1c0,0,0-0.1,0.1-0.1c0,0,0.1-0.1,0.1-0.1
	c0,0,0-0.1,0.1-0.1c0,0,0.1-0.1,0.1-0.1c0,0,0-0.1,0.1-0.1c0,0,0.1-0.1,0.1-0.1c0,0,0-0.1,0.1-0.1c0,0,0.1-0.1,0.1-0.1
	c0,0,0.1-0.1,0.1-0.1c0,0,0.1-0.1,0.1-0.1c0,0,0.1-0.1,0.1-0.1c0,0,0.1-0.1,0.1-0.1c0,0,0.1-0.1,0.1-0.1c0,0,0.1-0.1,0.1-0.1
	c0,0,0.1-0.1,0.1-0.1c0,0,0.1-0.1,0.1-0.1c0,0,0.1-0.1,0.1-0.1c0,0,0.1-0.1,0.1-0.1c0,0,0.1,0,0.1-0.1c0,0,0.1-0.1,0.1-0.1
	c0,0,0.1,0,0.1-0.1c0,0,0.1-0.1,0.1-0.1c0,0,0.1,0,0.1-0.1c0,0,0.1,0,0.1-0.1c0,0,0.1,0,0.1-0.1c0,0,0.1,0,0.1-0.1
	c0,0,0.1,0,0.1-0.1c0,0,0.1,0,0.1-0.1c0,0,0.1,0,0.1-0.1c0,0,0.1,0,0.1-0.1c0,0,0.1,0,0.1,0c0,0,0.1,0,0.1-0.1c0,0,0.1,0,0.1,0
	c0,0,0.1,0,0.1,0c0,0,0.1,0,0.1,0c0,0,0.1,0,0.1,0c0,0,0.1,0,0.1,0c0,0,0.1,0,0.1,0c0,0,0.1,0,0.1,0c0,0,0.1,0,0.1,0
	c0,0,0.1,0,0.1,0c0.1,0,0.1,0,0.2,0c0,0,0.1,0,0.1,0c0.1,0,0.1,0,0.2,0c0,0,0.1,0,0.1,0c0.1,0,0.1,0,0.2,0c0,0,0.1,0,0.1,0
	c0.1,0,0.2,0,0.3,0h1.6c1.9,0,3.7,0.8,4.9,2.3c0.2,0.3,0.6,0.3,0.9,0.1c0.3-0.2,0.3-0.6,0.1-0.9c-1-1.2-2.4-2.1-3.9-2.5
	c0.9-0.8,1.4-1.9,1.4-3.1c0-2.3-1.9-4.2-4.2-4.2c-2.3,0-4.2,1.9-4.2,4.2c0,1.2,0.5,2.4,1.4,3.1c0,0,0,0-0.1,0C8.1,11.9,8,12,7.9,12
	c0,0,0,0,0,0c-0.1,0-0.2,0.1-0.3,0.1c0,0-0.1,0-0.1,0c-0.1,0-0.1,0.1-0.2,0.1c0,0-0.1,0-0.1,0c-0.1,0-0.1,0.1-0.2,0.1
	c0,0-0.1,0-0.1,0.1c-0.1,0-0.1,0.1-0.2,0.1c0,0-0.1,0-0.1,0.1c-0.1,0-0.1,0.1-0.2,0.1c0,0-0.1,0-0.1,0.1c-0.1,0-0.1,0.1-0.2,0.1
	c0,0-0.1,0-0.1,0.1C6,12.9,6,12.9,5.9,13c0,0,0,0,0,0c-0.1,0.1-0.2,0.1-0.2,0.2c0,0,0,0-0.1,0.1c-0.1,0-0.1,0.1-0.2,0.1
	c0,0-0.1,0.1-0.1,0.1c0,0-0.1,0.1-0.1,0.1c0,0-0.1,0.1-0.1,0.1c0,0-0.1,0.1-0.1,0.1c0,0-0.1,0.1-0.1,0.1c0,0-0.1,0.1-0.1,0.1
	c0,0-0.1,0.1-0.1,0.1c0,0-0.1,0.1-0.1,0.1c0,0,0,0.1-0.1,0.1c-0.1,0.1-0.1,0.1-0.1,0.2c0,0,0,0,0,0.1c-0.1,0.1-0.1,0.2-0.2,0.2
	c0,0,0,0,0,0.1c0,0.1-0.1,0.1-0.1,0.2c0,0,0,0.1-0.1,0.1c0,0.1-0.1,0.1-0.1,0.2c0,0,0,0.1-0.1,0.1c0,0.1-0.1,0.1-0.1,0.2
	c0,0,0,0.1-0.1,0.1c0,0.1-0.1,0.1-0.1,0.2c0,0,0,0.1-0.1,0.1c0,0.1-0.1,0.1-0.1,0.2c0,0,0,0.1,0,0.1c0,0.1-0.1,0.1-0.1,0.2
	c0,0,0,0.1,0,0.1c0,0,0,0,0,0C1.9,15,1.3,13,1.3,11c0-0.4-0.3-0.7-0.7-0.7C0.3,10.3,0,10.6,0,11c0,2.8,1,5.4,2.9,7.4
	C5,20.7,7.9,22,11,22c3.1,0,6-1.3,8.1-3.6c0,0,0,0,0,0C21,16.4,22,13.8,22,11z M11,5.9c1.6,0,2.9,1.3,2.9,2.9c0,1.6-1.3,2.9-2.9,2.9
	c-1.6,0-2.9-1.3-2.9-2.9C8.1,7.2,9.4,5.9,11,5.9z"/>
</svg>
