<?xml version="1.0" encoding="utf-8"?>
<!-- Generator: Adobe Illustrator 24.1.2, SVG Export Plug-In . SVG Version: 6.00 Build 0)  -->
<svg version="1.1" id="Слой_1" xmlns="http://www.w3.org/2000/svg" xmlns:xlink="http://www.w3.org/1999/xlink" x="0px" y="0px"
	 viewBox="0 0 16 16" style="enable-background:new 0 0 16 16;" xml:space="preserve">
<style type="text/css">
	.st0{fill:#FFFFFF;}
</style>
<path class="st0" d="M12.1,7.2c0.3,0,0.6-0.3,0.6-0.6s-0.3-0.6-0.6-0.6s-0.6,0.3-0.6,0.6S11.7,7.2,12.1,7.2z"/>
<path class="st0" d="M13.5,1.3h-0.8V0.6c0-0.3-0.3-0.6-0.6-0.6s-0.6,0.3-0.6,0.6v0.6H8.6V0.6C8.6,0.3,8.3,0,8,0S7.3,0.3,7.3,0.6v0.6
	H4.5V0.6C4.5,0.3,4.3,0,3.9,0S3.3,0.3,3.3,0.6v0.6H2.5C1.1,1.3,0,2.4,0,3.8v9.8C0,14.9,1.1,16,2.5,16h4.8c0.3,0,0.6-0.3,0.6-0.6
	s-0.3-0.6-0.6-0.6H2.5c-0.7,0-1.3-0.6-1.3-1.3V3.8c0-0.7,0.6-1.3,1.3-1.3h0.8v0.6c0,0.3,0.3,0.6,0.6,0.6s0.6-0.3,0.6-0.6V2.5h2.8
	v0.6c0,0.3,0.3,0.6,0.6,0.6s0.6-0.3,0.6-0.6V2.5h2.8v0.6c0,0.3,0.3,0.6,0.6,0.6s0.6-0.3,0.6-0.6V2.5h0.8c0.7,0,1.3,0.6,1.3,1.3v3.6
	c0,0.3,0.3,0.6,0.6,0.6S16,7.7,16,7.3V3.8C16,2.4,14.9,1.3,13.5,1.3z"/>
<path class="st0" d="M12.2,8.4c-2.1,0-3.8,1.7-3.8,3.8c0,2.1,1.7,3.8,3.8,3.8c2.1,0,3.8-1.7,3.8-3.8C16,10.1,14.3,8.4,12.2,8.4z
	 M12.2,14.8c-1.4,0-2.5-1.1-2.5-2.5c0-1.4,1.1-2.5,2.5-2.5c1.4,0,2.5,1.1,2.5,2.5C14.8,13.6,13.6,14.8,12.2,14.8z"/>
<path class="st0" d="M13.1,11.6h-0.3v-0.7c0-0.3-0.3-0.6-0.6-0.6c-0.3,0-0.6,0.3-0.6,0.6v1.3c0,0.3,0.3,0.6,0.6,0.6h0.9
	c0.3,0,0.6-0.3,0.6-0.6C13.8,11.9,13.5,11.6,13.1,11.6z"/>
<path class="st0" d="M9.3,7.2c0.3,0,0.6-0.3,0.6-0.6S9.7,5.9,9.3,5.9S8.7,6.2,8.7,6.6S9,7.2,9.3,7.2z"/>
<path class="st0" d="M6.6,9.9c0.3,0,0.6-0.3,0.6-0.6S7,8.7,6.6,8.7S6,8.9,6,9.3S6.3,9.9,6.6,9.9z"/>
<path class="st0" d="M3.9,7.2c0.3,0,0.6-0.3,0.6-0.6S4.3,5.9,3.9,5.9S3.3,6.2,3.3,6.6S3.6,7.2,3.9,7.2z"/>
<path class="st0" d="M3.9,9.9c0.3,0,0.6-0.3,0.6-0.6S4.3,8.7,3.9,8.7S3.3,8.9,3.3,9.3S3.6,9.9,3.9,9.9z"/>
<path class="st0" d="M3.9,12.6c0.3,0,0.6-0.3,0.6-0.6s-0.3-0.6-0.6-0.6S3.3,11.7,3.3,12S3.6,12.6,3.9,12.6z"/>
<path class="st0" d="M6.6,12.6c0.3,0,0.6-0.3,0.6-0.6S7,11.4,6.6,11.4S6,11.7,6,12S6.3,12.6,6.6,12.6z"/>
<path class="st0" d="M6.6,7.2c0.3,0,0.6-0.3,0.6-0.6S7,5.9,6.6,5.9S6,6.2,6,6.6S6.3,7.2,6.6,7.2z"/>
</svg>
