<?xml version="1.0" encoding="utf-8"?>
<!-- Generator: Adobe Illustrator 24.1.2, SVG Export Plug-In . SVG Version: 6.00 Build 0)  -->
<svg version="1.1" id="Слой_1" xmlns="http://www.w3.org/2000/svg" xmlns:xlink="http://www.w3.org/1999/xlink" x="0px" y="0px"
	 viewBox="0 0 22 21" style="enable-background:new 0 0 22 21;" xml:space="preserve">
<style type="text/css">
	.st0{fill:#3E81E9;}
</style>
<path class="st0" d="M20.3,6.5h-1.1c0,0,0,0,0,0l-6.2-6.2c-0.3-0.3-0.7-0.3-1,0c-0.3,0.3-0.3,0.7,0,1l5.2,5.2H4.8l5.2-5.2
	c0.3-0.3,0.3-0.7,0-1c-0.3-0.3-0.7-0.3-1,0L2.8,6.4c0,0,0,0,0,0H1.7C0.8,6.5,0,7.2,0,8.1v1c0,0.9,0.7,1.6,1.5,1.7L2.9,19
	C3.1,20,4,20.8,5,20.8h12.1c1.1,0,2-0.8,2.1-1.8l1.2-8.2C21.3,10.7,22,10,22,9.1v-1C22,7.2,21.2,6.5,20.3,6.5z M20.6,9.1
	c0,0.1-0.1,0.2-0.2,0.2c-0.2,0-6.9,0-7.2,0c-0.4,0-0.7,0.3-0.7,0.7c0,0.4,0.3,0.7,0.7,0.7H19l-1.1,8c-0.1,0.4-0.4,0.6-0.7,0.6H5
	c-0.4,0-0.6-0.3-0.7-0.6l-1.3-8h5.8c0.4,0,0.7-0.3,0.7-0.7c0-0.4-0.3-0.7-0.7-0.7c-0.3,0-7,0-7.2,0c-0.1,0-0.2-0.1-0.2-0.2v-1
	c0-0.1,0.1-0.2,0.2-0.2h18.7c0.1,0,0.2,0.1,0.2,0.2V9.1z"/>
<path class="st0" d="M6.7,12.2c-0.4,0-0.7,0.3-0.7,0.7v4.3c0,0.4,0.3,0.7,0.7,0.7c0.4,0,0.7-0.3,0.7-0.7v-4.3
	C7.4,12.5,7.1,12.2,6.7,12.2z"/>
<path class="st0" d="M11,12.2c-0.4,0-0.7,0.3-0.7,0.7v4.3c0,0.4,0.3,0.7,0.7,0.7s0.7-0.3,0.7-0.7v-4.3C11.7,12.5,11.4,12.2,11,12.2z
	"/>
<path class="st0" d="M15.3,12.2c-0.4,0-0.7,0.3-0.7,0.7v4.3c0,0.4,0.3,0.7,0.7,0.7c0.4,0,0.7-0.3,0.7-0.7v-4.3
	C16,12.5,15.7,12.2,15.3,12.2z"/>
</svg>
