<svg width="14" height="8" viewBox="0 0 14 8" fill="none" xmlns="http://www.w3.org/2000/svg">
<path d="M7 0C4.32515 0 1.89946 1.40288 0.109543 3.68154C-0.0365143 3.86822 -0.0365143 4.12903 0.109543 4.31572C1.89946 6.59712 4.32515 8 7 8C9.67485 8 12.1005 6.59712 13.8905 4.31846C14.0365 4.13178 14.0365 3.87097 13.8905 3.68428C12.1005 1.40288 9.67485 0 7 0ZM7.19188 6.81675C5.41628 6.92382 3.94998 5.52093 4.06168 3.81606C4.15332 2.41043 5.34182 1.2711 6.80812 1.18325C8.58372 1.07618 10.05 2.47907 9.93832 4.18394C9.84382 5.58682 8.65531 6.72615 7.19188 6.81675ZM7.1031 5.51544C6.14657 5.5731 5.35614 4.81812 5.41915 3.90117C5.46783 3.14345 6.10934 2.53123 6.89977 2.48181C7.8563 2.42416 8.64672 3.17914 8.58372 4.09609C8.53217 4.85655 7.89066 5.46877 7.1031 5.51544Z" fill="#ADADAD"/>
</svg>
