<?xml version="1.0" encoding="utf-8"?>
<!-- Generator: Adobe Illustrator 24.1.2, SVG Export Plug-In . SVG Version: 6.00 Build 0)  -->
<svg version="1.1" id="Слой_1" xmlns="http://www.w3.org/2000/svg" xmlns:xlink="http://www.w3.org/1999/xlink" x="0px" y="0px"
	 viewBox="0 0 18 20" style="enable-background:new 0 0 18 20;" xml:space="preserve">
<style type="text/css">
	.st0{fill:#F4900C;}
	.st1{fill:#FFCC4D;}
</style>
<path class="st0" d="M18,10.5c0-1.1-0.2-2.1-0.6-3.1c-0.2,2.9-1.8,4.3-3.4,3.6c-1.5-0.6-0.5-3.1-0.4-4.3c0.1-2,0-4.3-3.7-6.2
	c1.5,2.9,0.2,4.7-1.2,4.8C7.2,5.4,5.8,4,6.3,1.6C4.6,2.8,4.5,5,5.1,6.3c0.6,1.4,0,2.6-1.4,2.8C2.2,9.3,1.4,7.5,2.1,4.7
	C0.8,6.3,0,8.3,0,10.5c0,5,4,9,9,9C14,19.5,18,15.5,18,10.5z"/>
<path class="st1" d="M14.5,13.2c0.1,1.6-1.4,2.3-2.1,2c-1.1-0.4-0.8-1.2-1.1-2.8c-0.3-1.6-1.4-2.7-3-3.2c1.2,3.4-0.7,4.6-1.6,4.8
	c-1,0.2-2,0-2.1-2.1c-1.2,1.2-1.9,2.7-1.9,4.5c0,0.2,0,0.4,0,0.6c1.6,1.6,3.9,2.6,6.3,2.6c2.5,0,4.7-1,6.3-2.6c0-0.2,0-0.4,0-0.6
	C15.4,15.2,15,14.1,14.5,13.2z"/>
</svg>
