<?xml version="1.0" encoding="utf-8"?>
<!-- Generator: Adobe Illustrator 24.1.2, SVG Export Plug-In . SVG Version: 6.00 Build 0)  -->
<svg version="1.1" id="Слой_1" xmlns="http://www.w3.org/2000/svg" xmlns:xlink="http://www.w3.org/1999/xlink" x="0px" y="0px"
	 viewBox="0 0 22 19" style="enable-background:new 0 0 22 19;" xml:space="preserve">
<path class="st0" d="M14.2,3.4c0.2,0.3,0.1,0.7-0.2,0.9c-0.2,0.1-0.3,0.2-0.4,0.3c-0.1,0.1-0.3,0.2-0.5,0.2c-0.2,0-0.3-0.1-0.5-0.2
	c-0.3-0.2-0.3-0.7,0-0.9c0.2-0.2,0.4-0.4,0.7-0.5C13.6,3,14,3.1,14.2,3.4z M20.1,11c-0.1,0.1-6.7,6.5-6.7,6.5c-0.6,0.6-1.5,1-2.4,1
	s-1.8-0.3-2.4-1L1.9,11c-2.6-2.5-2.6-6.6,0-9.1C3.2,0.7,4.8,0,6.6,0C8.2,0,9.8,0.6,11,1.6c1.2-1,2.8-1.6,4.4-1.6
	c1.8,0,3.4,0.7,4.7,1.9C22.6,4.4,22.6,8.5,20.1,11z M19.1,2.8c-1-1-2.3-1.5-3.7-1.5c-1.4,0-2.7,0.5-3.7,1.5c-0.1,0-0.1,0.1-0.2,0.2
	c-0.3,0.3-0.7,0.3-1,0c-0.1-0.1-0.1-0.1-0.2-0.2c-1-1-2.3-1.5-3.7-1.5c-1.4,0-2.7,0.5-3.7,1.5c-2.1,2-2.1,5.3,0,7.3
	c0.1,0.1,6.7,6.5,6.7,6.5c0.4,0.4,0.9,0.6,1.4,0.6s1-0.2,1.4-0.6l6.7-6.5C21.2,8.1,21.2,4.8,19.1,2.8z M18.1,3.7
	c-0.4-0.4-0.9-0.7-1.4-0.9c-0.3-0.1-0.7,0-0.9,0.4c-0.1,0.3,0,0.7,0.4,0.8c0.3,0.1,0.7,0.3,0.9,0.6c1,1,1,2.7,0,3.7l-2.4,2.3
	c-0.3,0.3-0.3,0.7,0,0.9c0.1,0.1,0.3,0.2,0.5,0.2c0.2,0,0.3-0.1,0.5-0.2l2.4-2.3C19.7,7.7,19.7,5.2,18.1,3.7z"/>
</svg>
