<?xml version="1.0" encoding="utf-8"?>
<!-- Generator: Adobe Illustrator 24.1.2, SVG Export Plug-In . SVG Version: 6.00 Build 0)  -->
<svg version="1.1" id="Слой_1" xmlns="http://www.w3.org/2000/svg" xmlns:xlink="http://www.w3.org/1999/xlink" x="0px" y="0px"
	 viewBox="0 0 20 20" style="enable-background:new 0 0 20 20;" xml:space="preserve">
<path class="st0" d="M13.8,0H6.3C2.8,0,0,2.8,0,6.3v7.5C0,17.2,2.8,20,6.3,20h7.5c3.5,0,6.3-2.8,6.3-6.3V6.3C20,2.8,17.2,0,13.8,0z
	 M18.1,13.8c0,2.4-2,4.4-4.4,4.4H6.3c-2.4,0-4.4-2-4.4-4.4V6.3c0-2.4,2-4.4,4.4-4.4h7.5c2.4,0,4.4,2,4.4,4.4V13.8z"/>
<path class="st0" d="M10,5c-2.8,0-5,2.2-5,5c0,2.8,2.2,5,5,5c2.8,0,5-2.2,5-5C15,7.2,12.8,5,10,5z M10,13.1c-1.7,0-3.1-1.4-3.1-3.1
	c0-1.7,1.4-3.1,3.1-3.1s3.1,1.4,3.1,3.1C13.1,11.7,11.7,13.1,10,13.1z"/>
<path class="st0" d="M15.4,5.3C15.7,5.3,16,5,16,4.6S15.7,4,15.4,4c-0.4,0-0.7,0.3-0.7,0.7S15,5.3,15.4,5.3z"/>
</svg>
