<?xml version="1.0" encoding="utf-8"?>
<!-- Generator: Adobe Illustrator 24.1.2, SVG Export Plug-In . SVG Version: 6.00 Build 0)  -->
<svg version="1.1" id="Слой_1" xmlns="http://www.w3.org/2000/svg" xmlns:xlink="http://www.w3.org/1999/xlink" x="0px" y="0px"
	 viewBox="0 0 8 10" style="enable-background:new 0 0 8 10;" xml:space="preserve">
<style type="text/css">
	.st0{fill:#3E81E9;}
</style>
<path class="st0" d="M7.8,2.9c0-0.2-0.1-0.3-0.2-0.5C6.9,0.6,5.3,0,3.9,0C2.2,0,0.3,1.2,0,3.6v0.5c0,0,0,0.2,0,0.3
	c0.1,1.2,1.1,2.4,1.7,3.5C2,8.4,2.3,8.8,2.6,9.3c0.6,1,2.2,1,2.8,0C5.5,9,5.7,8.8,5.8,8.6C5.9,8.4,6,8.3,6.1,8.1
	C6.8,6.8,8,5.4,8,4.1V3.6C8,3.4,7.8,2.9,7.8,2.9z M4,5.4c-0.5,0-1.1-0.3-1.4-1c0-0.1,0-0.3,0-0.4V3.7c0-0.9,0.8-1.3,1.4-1.3
	c0.8,0,1.5,0.7,1.5,1.5C5.5,4.7,4.8,5.4,4,5.4z"/>
</svg>
