<?xml version="1.0" encoding="utf-8"?>
<!-- Generator: Adobe Illustrator 24.1.2, SVG Export Plug-In . SVG Version: 6.00 Build 0)  -->
<svg version="1.1" id="Слой_1" xmlns="http://www.w3.org/2000/svg" xmlns:xlink="http://www.w3.org/1999/xlink" x="0px" y="0px"
	 viewBox="0 0 14 14" style="enable-background:new 0 0 14 14;" xml:space="preserve">
<style type="text/css">
	.st0{fill:#3E81E9;}
</style>
<path class="st0" d="M13.8,12.8l-3.5-3.5c0.9-1,1.4-2.3,1.4-3.6C11.7,2.5,9.1,0,5.9,0S0,2.5,0,5.7c0,3.1,2.6,5.7,5.9,5.7
	c1.2,0,2.4-0.4,3.4-1l3.5,3.5c0.1,0.1,0.3,0.2,0.6,0.2c0.2,0,0.4-0.1,0.5-0.2C14.1,13.5,14.1,13,13.8,12.8z M5.9,1.5
	c2.4,0,4.3,1.9,4.3,4.2S8.2,9.8,5.9,9.8C3.5,9.8,1.5,8,1.5,5.7S3.5,1.5,5.9,1.5z"/>
</svg>
