<?xml version="1.0" encoding="utf-8"?>
<!-- Generator: Adobe Illustrator 24.1.2, SVG Export Plug-In . SVG Version: 6.00 Build 0)  -->
<svg version="1.1" id="Слой_1" xmlns="http://www.w3.org/2000/svg" xmlns:xlink="http://www.w3.org/1999/xlink" x="0px" y="0px"
	 viewBox="0 0 11 8" style="enable-background:new 0 0 11 8;" xml:space="preserve">
<style type="text/css">
	.st0{fill:#2E2E2E;}
</style>
<path class="st0" d="M0.6,4.4c-0.2-0.2-0.2-0.5,0-0.7l3.2-3.2c0.2-0.2,0.5-0.2,0.7,0c0.2,0.2,0.2,0.5,0,0.7L1.7,4l2.8,2.8
	c0.2,0.2,0.2,0.5,0,0.7C4.3,7.7,4,7.7,3.8,7.5L0.6,4.4z M10,3.5c0.3,0,0.5,0.2,0.5,0.5S10.3,4.5,10,4.5V3.5z M1,3.5h9v1H1V3.5z"/>
</svg>
