<?xml version="1.0" encoding="utf-8"?>
<!-- Generator: Adobe Illustrator 24.1.2, SVG Export Plug-In . SVG Version: 6.00 Build 0)  -->
<svg version="1.1" id="Слой_1" xmlns="http://www.w3.org/2000/svg" xmlns:xlink="http://www.w3.org/1999/xlink" x="0px" y="0px"
	 viewBox="0 0 16 16" style="enable-background:new 0 0 16 16;" xml:space="preserve">
<style type="text/css">
	.st0{fill:#FFFFFF;}
</style>
<path class="st0" d="M14.3,4.2C14,4.4,13.8,4.8,14,5.1C14.4,6,14.7,7,14.7,8c0,3.7-3,6.7-6.7,6.7c-3.7,0-6.7-3-6.7-6.7
	c0-3.7,3-6.7,6.7-6.7c1.5,0,3,0.5,4.1,1.4C12.4,3,12.8,3,13.1,2.7C13.3,2.4,13.3,2,13,1.7C11.6,0.6,9.8,0,8,0C3.6,0,0,3.6,0,8
	c0,4.4,3.6,8,8,8c4.4,0,8-3.6,8-8c0-1.2-0.3-2.4-0.8-3.5C15,4.2,14.6,4,14.3,4.2z"/>
<path class="st0" d="M8,2.7C7.6,2.7,7.3,3,7.3,3.3V8c0,0.4,0.3,0.7,0.7,0.7h3.3C11.7,8.7,12,8.4,12,8s-0.3-0.7-0.7-0.7H8.7v-4
	C8.7,3,8.4,2.7,8,2.7z"/>
</svg>
