<?xml version="1.0" encoding="utf-8"?>
<!-- Generator: Adobe Illustrator 24.1.2, SVG Export Plug-In . SVG Version: 6.00 Build 0)  -->
<svg version="1.1" id="Слой_1" xmlns="http://www.w3.org/2000/svg" xmlns:xlink="http://www.w3.org/1999/xlink" x="0px" y="0px"
	 viewBox="0 0 25 15" style="enable-background:new 0 0 25 15;" xml:space="preserve">
<path class="st0" d="M12.2,14.6h1.5c0,0,0.5-0.1,0.7-0.3c0.2-0.2,0.2-0.7,0.2-0.7s0-2,0.9-2.3c0.9-0.3,2.1,1.9,3.3,2.8
	c0.9,0.6,1.7,0.5,1.7,0.5l3.3,0c0,0,1.7-0.1,0.9-1.5c-0.1-0.1-0.5-1-2.5-2.9c-2.1-1.9-1.8-1.6,0.7-5c1.5-2,2.2-3.3,2-3.8
	C24.8,0.9,23.6,1,23.6,1l-3.8,0c0,0-0.3,0-0.5,0.1c-0.2,0.1-0.3,0.4-0.3,0.4s-0.6,1.6-1.4,2.9c-1.7,2.8-2.3,3-2.6,2.8
	c-0.6-0.4-0.5-1.7-0.5-2.5c0-2.8,0.4-3.9-0.8-4.2c-0.4-0.1-0.7-0.2-1.8-0.2c-1.3,0-2.5,0-3.1,0.3C8.5,0.9,8.1,1.4,8.3,1.4
	c0.2,0,0.8,0.2,1.1,0.6c0.4,0.5,0.4,1.7,0.4,1.7s0.2,3.2-0.5,3.6C8.8,7.6,8.1,7,6.6,4.4C5.9,3.1,5.3,1.7,5.3,1.7S5.2,1.4,5,1.2
	C4.7,1.1,4.4,1,4.4,1L0.8,1c0,0-0.5,0-0.7,0.2c-0.2,0.2,0,0.6,0,0.6s2.8,6.5,6,9.8C8.9,14.8,12.2,14.6,12.2,14.6z"/>
</svg>
