<?xml version="1.0" encoding="utf-8"?>
<!-- Generator: Adobe Illustrator 24.1.2, SVG Export Plug-In . SVG Version: 6.00 Build 0)  -->
<svg version="1.1" id="Слой_1" xmlns="http://www.w3.org/2000/svg" xmlns:xlink="http://www.w3.org/1999/xlink" x="0px" y="0px"
	 viewBox="0 0 32 31" style="enable-background:new 0 0 32 31;" xml:space="preserve">
<style type="text/css">
	.st0{fill:#4D76A1;}
	.st1{fill-rule:evenodd;clip-rule:evenodd;fill:#FFFFFF;}
</style>
<path class="st0" d="M16.1,31c8.6,0,15.5-6.9,15.5-15.5C31.6,6.9,24.7,0,16.1,0C7.5,0,0.6,6.9,0.6,15.5C0.6,24.1,7.5,31,16.1,31z"/>
<path class="st1" d="M15.5,22.3h1.2c0,0,0.4,0,0.6-0.2c0.2-0.2,0.2-0.5,0.2-0.5s0-1.6,0.7-1.9c0.7-0.2,1.7,1.6,2.7,2.3
	c0.8,0.5,1.4,0.4,1.4,0.4l2.7,0c0,0,1.4-0.1,0.7-1.2c-0.1-0.1-0.4-0.8-2-2.3c-1.7-1.6-1.5-1.3,0.6-4.1c1.3-1.7,1.8-2.7,1.6-3.1
	c-0.1-0.4-1.1-0.3-1.1-0.3l-3.1,0c0,0-0.2,0-0.4,0.1c-0.2,0.1-0.3,0.3-0.3,0.3S20.6,13,20,14.1c-1.4,2.3-1.9,2.4-2.1,2.3
	c-0.5-0.3-0.4-1.3-0.4-2.1c0-2.2,0.3-3.2-0.7-3.4c-0.3-0.1-0.6-0.1-1.4-0.1c-1.1,0-2,0-2.5,0.3c-0.3,0.2-0.6,0.6-0.5,0.6
	c0.2,0,0.7,0.1,0.9,0.5c0.3,0.4,0.3,1.4,0.3,1.4s0.2,2.6-0.4,3c-0.4,0.2-1-0.2-2.2-2.3c-0.6-1.1-1.1-2.3-1.1-2.3s-0.1-0.2-0.3-0.3
	c-0.2-0.1-0.5-0.2-0.5-0.2l-2.9,0c0,0-0.4,0-0.6,0.2c-0.1,0.2,0,0.5,0,0.5s2.3,5.3,4.9,8C12.8,22.5,15.5,22.3,15.5,22.3z"/>
</svg>
