<?xml version="1.0" encoding="utf-8"?>
<!-- Generator: Adobe Illustrator 24.1.2, SVG Export Plug-In . SVG Version: 6.00 Build 0)  -->
<svg version="1.1" id="Слой_1" xmlns="http://www.w3.org/2000/svg" xmlns:xlink="http://www.w3.org/1999/xlink" x="0px" y="0px"
	 viewBox="0 0 20 20" style="enable-background:new 0 0 20 20;" xml:space="preserve">
<path class="st0" d="M10,0C4.5,0,0,4.5,0,10c0,1.8,0.5,3.6,1.4,5.1L0,20l4.9-1.4C6.4,19.5,8.2,20,10,20c5.5,0,10-4.5,10-10
	C20,4.5,15.5,0,10,0z M16.3,14.2l-0.5,0.5c-0.7,0.7-2.2,0.6-3.1,0.4c-3.2-0.6-7-4.3-7.7-7.4C4.5,6.1,4.7,4.7,5.3,4.2l0.5-0.5
	c0.3-0.3,0.7-0.3,0.9,0l1.9,1.9c0.1,0.1,0.2,0.3,0.2,0.5S8.6,6.4,8.5,6.5L8.1,7c-0.5,0.5-0.5,1.3,0,1.9l3.1,3c0.5,0.5,1.3,0.5,1.9,0
	l0.5-0.5c0.2-0.2,0.7-0.2,0.9,0l1.9,1.9C16.5,13.5,16.5,14,16.3,14.2z"/>
</svg>
