<?xml version="1.0" encoding="utf-8"?>
<!-- Generator: Adobe Illustrator 24.1.2, SVG Export Plug-In . SVG Version: 6.00 Build 0)  -->
<svg version="1.1" id="Слой_1" xmlns="http://www.w3.org/2000/svg" xmlns:xlink="http://www.w3.org/1999/xlink" x="0px" y="0px"
	 viewBox="0 0 25 19" style="enable-background:new 0 0 25 19;" xml:space="preserve">
<path class="st0" d="M23.9,2.6C23.3,1.4,22.5,1.1,21,1c-1.5-0.1-5.3-0.1-8.5-0.1c-3.3,0-7,0-8.5,0.1C2.5,1.1,1.7,1.4,1.1,2.6
	C0.4,3.8,0,5.8,0,9.5c0,0,0,0,0,0c0,0,0,0,0,0v0c0,3.6,0.4,5.7,1.1,6.9C1.7,17.6,2.5,17.9,4,18c1.5,0.1,5.3,0.1,8.5,0.1
	c3.3,0,7-0.1,8.5-0.1c1.5-0.1,2.2-0.3,2.9-1.5c0.7-1.2,1.1-3.3,1.1-6.9c0,0,0,0,0,0v0C25,5.8,24.6,3.8,23.9,2.6z M9.4,14.2V4.8
	l7.8,4.7L9.4,14.2z"/>
</svg>
